HIERARCHY
ROOT Hips
{
    OFFSET 0.000 95.729 0.000
    CHANNELS 6 Xposition Yposition Zposition Yrotation Xrotation Zrotation
    JOINT RightUpLeg
    {
        OFFSET -9.625 -1.639 0.000
        CHANNELS 6 Xposition Yposition Zposition Yrotation Xrotation Zrotation
        JOINT RightLeg
        {
            OFFSET 0.000 -41.481 0.000
            CHANNELS 6 Xposition Yposition Zposition Yrotation Xrotation Zrotation
            JOINT RightFoot
            {
                OFFSET 0.000 -43.120 0.000
                CHANNELS 6 Xposition Yposition Zposition Yrotation Xrotation Zrotation
                End Site
                {
                    OFFSET 0.000 -7.850 17.850
                }
            }
        }
    }
    JOINT LeftUpLeg
    {
        OFFSET 9.625 -1.639 0.000
        CHANNELS 6 Xposition Yposition Zposition Yrotation Xrotation Zrotation
        JOINT LeftLeg
        {
            OFFSET 0.000 -43.120 0.000
            CHANNELS 6 Xposition Yposition Zposition Yrotation Xrotation Zrotation
            JOINT LeftFoot
            {
                OFFSET 0.000 -43.120 0.000
                CHANNELS 6 Xposition Yposition Zposition Yrotation Xrotation Zrotation
                End Site
                {
                    OFFSET 0.000 -7.850 17.850
                }
            }
        }
    }
    JOINT Spine
    {
        OFFSET 0.000 16.395 0.000
        CHANNELS 6 Xposition Yposition Zposition Yrotation Xrotation Zrotation
        JOINT Spine1
        {
            OFFSET 0.000 10.023 0.000
            CHANNELS 6 Xposition Yposition Zposition Yrotation Xrotation Zrotation
            JOINT Spine2
            {
                OFFSET 0.000 10.437 0.000
                CHANNELS 6 Xposition Yposition Zposition Yrotation Xrotation Zrotation
                JOINT Spine3
                {
                    OFFSET 0.000 10.023 0.000
                    CHANNELS 6 Xposition Yposition Zposition Yrotation Xrotation Zrotation
                    JOINT Neck
                    {
                        OFFSET 0.000 10.713 0.000
                        CHANNELS 6 Xposition Yposition Zposition Yrotation Xrotation Zrotation
                        JOINT Head
                        {
                            OFFSET 0.000 9.720 0.000
                            CHANNELS 6 Xposition Yposition Zposition Yrotation Xrotation Zrotation
                            End Site
                            {
                                OFFSET 0.000 16.450 0.000
                            }
                        }
                    }
                    JOINT RightShoulder
                    {
                        OFFSET -3.275 7.142 0.000
                        CHANNELS 6 Xposition Yposition Zposition Yrotation Xrotation Zrotation
                        JOINT RightArm
                        {
                            OFFSET -13.100 0.000 0.000
                            CHANNELS 6 Xposition Yposition Zposition Yrotation Xrotation Zrotation
                            JOINT RightForeArm
                            {
                                OFFSET -27.250 0.000 0.000
                                CHANNELS 6 Xposition Yposition Zposition Yrotation Xrotation Zrotation
                                JOINT RightHand
                                {
                                    OFFSET -26.750 0.000 0.000
                                    CHANNELS 6 Xposition Yposition Zposition Yrotation Xrotation Zrotation
                                    JOINT RightHandThumb1
                                    {
                                        OFFSET -2.560 0.196 3.210
                                        CHANNELS 6 Xposition Yposition Zposition Yrotation Xrotation Zrotation
                                        JOINT RightHandThumb2
                                        {
                                            OFFSET -3.788 0.000 0.000
                                            CHANNELS 6 Xposition Yposition Zposition Yrotation Xrotation Zrotation
                                            JOINT RightHandThumb3
                                            {
                                                OFFSET -2.631 0.000 0.000
                                                CHANNELS 6 Xposition Yposition Zposition Yrotation Xrotation Zrotation
                                                End Site
                                                {
                                                    OFFSET -2.256 0.000 0.000
                                                }
                                            }
                                        }
                                    }
                                    JOINT RightInHandIndex
                                    {
                                        OFFSET -3.316 0.523 2.035
                                        CHANNELS 6 Xposition Yposition Zposition Yrotation Xrotation Zrotation
                                        JOINT RightHandIndex1
                                        {
                                            OFFSET -5.366 -0.094 1.028
                                            CHANNELS 6 Xposition Yposition Zposition Yrotation Xrotation Zrotation
                                            JOINT RightHandIndex2
                                            {
                                                OFFSET -3.723 0.000 0.000
                                                CHANNELS 6 Xposition Yposition Zposition Yrotation Xrotation Zrotation
                                                JOINT RightHandIndex3
                                                {
                                                    OFFSET -2.111 0.000 0.000
                                                    CHANNELS 6 Xposition Yposition Zposition Yrotation Xrotation Zrotation
                                                    End Site
                                                    {
                                                        OFFSET -1.857 0.000 0.000
                                                    }
                                                }
                                            }
                                        }
                                    }
                                    JOINT RightInHandMiddle
                                    {
                                        OFFSET -3.479 0.532 0.778
                                        CHANNELS 6 Xposition Yposition Zposition Yrotation Xrotation Zrotation
                                        JOINT RightHandMiddle1
                                        {
                                            OFFSET -5.322 -0.086 0.323
                                            CHANNELS 6 Xposition Yposition Zposition Yrotation Xrotation Zrotation
                                            JOINT RightHandMiddle2
                                            {
                                                OFFSET -4.062 0.000 0.000
                                                CHANNELS 6 Xposition Yposition Zposition Yrotation Xrotation Zrotation
                                                JOINT RightHandMiddle3
                                                {
                                                    OFFSET -2.547 0.000 0.000
                                                    CHANNELS 6 Xposition Yposition Zposition Yrotation Xrotation Zrotation
                                                    End Site
                                                    {
                                                        OFFSET -2.031 0.000 0.000
                                                    }
                                                }
                                            }
                                        }
                                    }
                                    JOINT RightInHandRing
                                    {
                                        OFFSET -3.461 0.553 -0.133
                                        CHANNELS 6 Xposition Yposition Zposition Yrotation Xrotation Zrotation
                                        JOINT RightHandRing1
                                        {
                                            OFFSET -4.767 -0.023 -0.493
                                            CHANNELS 6 Xposition Yposition Zposition Yrotation Xrotation Zrotation
                                            JOINT RightHandRing2
                                            {
                                                OFFSET -3.541 0.000 0.000
                                                CHANNELS 6 Xposition Yposition Zposition Yrotation Xrotation Zrotation
                                                JOINT RightHandRing3
                                                {
                                                    OFFSET -2.456 0.000 0.000
                                                    CHANNELS 6 Xposition Yposition Zposition Yrotation Xrotation Zrotation
                                                    End Site
                                                    {
                                                        OFFSET -1.910 0.000 0.000
                                                    }
                                                }
                                            }
                                        }
                                    }
                                    JOINT RightInHandPinky
                                    {
                                        OFFSET -3.251 0.483 -1.236
                                        CHANNELS 6 Xposition Yposition Zposition Yrotation Xrotation Zrotation
                                        JOINT RightHandPinky1
                                        {
                                            OFFSET -4.259 -0.023 -1.122
                                            CHANNELS 6 Xposition Yposition Zposition Yrotation Xrotation Zrotation
                                            JOINT RightHandPinky2
                                            {
                                                OFFSET -2.835 0.000 0.000
                                                CHANNELS 6 Xposition Yposition Zposition Yrotation Xrotation Zrotation
                                                JOINT RightHandPinky3
                                                {
                                                    OFFSET -1.792 0.000 0.000
                                                    CHANNELS 6 Xposition Yposition Zposition Yrotation Xrotation Zrotation
                                                    End Site
                                                    {
                                                        OFFSET -1.692 0.000 0.000
                                                    }
                                                }
                                            }
                                        }
                                    }
                                }
                            }
                        }
                    }
                    JOINT LeftShoulder
                    {
                        OFFSET 3.275 7.142 0.000
                        CHANNELS 6 Xposition Yposition Zposition Yrotation Xrotation Zrotation
                        JOINT LeftArm
                        {
                            OFFSET 13.100 0.000 0.000
                            CHANNELS 6 Xposition Yposition Zposition Yrotation Xrotation Zrotation
                            JOINT LeftForeArm
                            {
                                OFFSET 27.250 0.000 0.000
                                CHANNELS 6 Xposition Yposition Zposition Yrotation Xrotation Zrotation
                                JOINT LeftHand
                                {
                                    OFFSET 26.750 0.000 0.000
                                    CHANNELS 6 Xposition Yposition Zposition Yrotation Xrotation Zrotation
                                    JOINT LeftHandThumb1
                                    {
                                        OFFSET 2.560 0.196 3.210
                                        CHANNELS 6 Xposition Yposition Zposition Yrotation Xrotation Zrotation
                                        JOINT LeftHandThumb2
                                        {
                                            OFFSET 3.788 0.000 0.000
                                            CHANNELS 6 Xposition Yposition Zposition Yrotation Xrotation Zrotation
                                            JOINT LeftHandThumb3
                                            {
                                                OFFSET 2.631 0.000 0.000
                                                CHANNELS 6 Xposition Yposition Zposition Yrotation Xrotation Zrotation
                                                End Site
                                                {
                                                    OFFSET 2.256 0.000 0.000
                                                }
                                            }
                                        }
                                    }
                                    JOINT LeftInHandIndex
                                    {
                                        OFFSET 3.316 0.523 2.035
                                        CHANNELS 6 Xposition Yposition Zposition Yrotation Xrotation Zrotation
                                        JOINT LeftHandIndex1
                                        {
                                            OFFSET 5.366 -0.094 1.028
                                            CHANNELS 6 Xposition Yposition Zposition Yrotation Xrotation Zrotation
                                            JOINT LeftHandIndex2
                                            {
                                                OFFSET 3.723 0.000 0.000
                                                CHANNELS 6 Xposition Yposition Zposition Yrotation Xrotation Zrotation
                                                JOINT LeftHandIndex3
                                                {
                                                    OFFSET 2.111 0.000 0.000
                                                    CHANNELS 6 Xposition Yposition Zposition Yrotation Xrotation Zrotation
                                                    End Site
                                                    {
                                                        OFFSET 1.857 0.000 0.000
                                                    }
                                                }
                                            }
                                        }
                                    }
                                    JOINT LeftInHandMiddle
                                    {
                                        OFFSET 3.479 0.532 0.778
                                        CHANNELS 6 Xposition Yposition Zposition Yrotation Xrotation Zrotation
                                        JOINT LeftHandMiddle1
                                        {
                                            OFFSET 5.322 -0.086 0.323
                                            CHANNELS 6 Xposition Yposition Zposition Yrotation Xrotation Zrotation
                                            JOINT LeftHandMiddle2
                                            {
                                                OFFSET 4.062 0.000 0.000
                                                CHANNELS 6 Xposition Yposition Zposition Yrotation Xrotation Zrotation
                                                JOINT LeftHandMiddle3
                                                {
                                                    OFFSET 2.547 0.000 0.000
                                                    CHANNELS 6 Xposition Yposition Zposition Yrotation Xrotation Zrotation
                                                    End Site
                                                    {
                                                        OFFSET 2.031 0.000 0.000
                                                    }
                                                }
                                            }
                                        }
                                    }
                                    JOINT LeftInHandRing
                                    {
                                        OFFSET 3.461 0.553 -0.133
                                        CHANNELS 6 Xposition Yposition Zposition Yrotation Xrotation Zrotation
                                        JOINT LeftHandRing1
                                        {
                                            OFFSET 4.767 -0.023 -0.493
                                            CHANNELS 6 Xposition Yposition Zposition Yrotation Xrotation Zrotation
                                            JOINT LeftHandRing2
                                            {
                                                OFFSET 3.541 0.000 0.000
                                                CHANNELS 6 Xposition Yposition Zposition Yrotation Xrotation Zrotation
                                                JOINT LeftHandRing3
                                                {
                                                    OFFSET 2.456 0.000 0.000
                                                    CHANNELS 6 Xposition Yposition Zposition Yrotation Xrotation Zrotation
                                                    End Site
                                                    {
                                                        OFFSET 1.910 0.000 0.000
                                                    }
                                                }
                                            }
                                        }
                                    }
                                    JOINT LeftInHandPinky
                                    {
                                        OFFSET 3.251 0.483 -1.236
                                        CHANNELS 6 Xposition Yposition Zposition Yrotation Xrotation Zrotation
                                        JOINT LeftHandPinky1
                                        {
                                            OFFSET 4.259 -0.023 -1.122
                                            CHANNELS 6 Xposition Yposition Zposition Yrotation Xrotation Zrotation
                                            JOINT LeftHandPinky2
                                            {
                                                OFFSET 2.835 0.000 0.000
                                                CHANNELS 6 Xposition Yposition Zposition Yrotation Xrotation Zrotation
                                                JOINT LeftHandPinky3
                                                {
                                                    OFFSET 1.792 0.000 0.000
                                                    CHANNELS 6 Xposition Yposition Zposition Yrotation Xrotation Zrotation
                                                    End Site
                                                    {
                                                        OFFSET 1.692 0.000 0.000
                                                    }
                                                }
                                            }
                                        }
                                    }
                                }
                            }
                        }
                    }
                }
            }
        }
    }
}
MOTION

Frames: 2
Frame Time: 0.008
-0.85 96.94 -0.84 119.74 -4.68 -0.09 -9.61 -1.63 0.02 2.11 7.35 0.11 0.04 -41.47 -0.01 -6.88 0.91 0.79 0.04 -43.18 0.01 -5.09 -3.75 1.36 9.67 -1.63 -0.04 -3.18 5.79 -0.64 0.04 -43.11 -0.06 5.03 0.74 0.78 -0.04 -43.10 -0.07 0.55 -0.78 -1.10 0.01 16.39 -0.02 0.61 5.62 -1.22 0.02 10.02 -0.01 0.15 1.40 -0.31 0.02 10.44 -0.00 0.22 2.33 -0.51 0.03 10.02 -0.01 0.01 -0.25 0.06 0.01 10.71 0.00 0.01 -0.25 0.06 0.07 9.72 -0.05 0.09 -4.55 0.99 -3.26 7.16 0.02 -0.01 0.24 -0.16 -13.16 0.02 0.05 15.69 -2.88 87.52 -27.23 0.17 0.12 4.98 -15.31 3.30 -26.76 0.15 0.22 2.22 1.33 10.38 -2.56 0.20 3.21 21.86 -0.00 30.00 -3.79 0.00 0.00 -10.00 -0.00 0.00 -2.63 0.00 0.00 -10.00 -0.00 0.00 -3.32 0.52 2.03 0.00 -0.00 0.00 -5.37 -0.09 1.03 2.55 -0.00 20.00 -3.72 0.00 0.00 0.00 -0.00 24.00 -2.11 0.00 0.00 0.00 -0.00 20.00 -3.48 0.53 0.78 0.00 -0.00 0.00 -5.32 -0.09 0.32 0.00 -0.00 20.00 -4.06 0.00 0.00 0.00 -0.00 24.00 -2.55 0.00 0.00 0.00 -0.00 20.00 -3.46 0.55 -0.13 0.00 -0.00 0.00 -4.77 -0.02 -0.49 -3.00 -0.00 20.00 -3.54 0.00 0.00 0.00 -0.00 24.00 -2.46 0.00 0.00 0.00 -0.00 20.00 -3.25 0.48 -1.24 0.00 -0.00 0.00 -4.26 -0.02 -1.12 -8.83 -0.00 20.00 -2.84 0.00 0.00 0.00 -0.00 24.00 -1.79 0.00 0.00 0.00 -0.00 20.00 3.28 7.13 -0.05 10.31 0.81 -9.57 13.06 -0.03 -0.11 -29.88 7.99 -71.89 27.16 0.01 0.33 -9.44 -25.60 -10.99 26.75 -0.43 0.65 2.55 5.89 2.45 2.56 0.20 3.21 -21.86 -0.00 -30.00 3.79 0.00 0.00 10.00 -0.00 0.00 2.63 0.00 0.00 10.00 -0.00 0.00 3.32 0.52 2.03 0.00 -0.00 0.00 5.37 -0.09 1.03 -2.55 -0.00 -20.00 3.72 0.00 0.00 0.00 -0.00 -24.00 2.11 0.00 0.00 0.00 -0.00 -20.00 3.48 0.53 0.78 0.00 -0.00 0.00 5.32 -0.09 0.32 0.00 -0.00 -20.00 4.06 0.00 0.00 0.00 -0.00 -24.00 2.55 0.00 0.00 0.00 -0.00 -20.00 3.46 0.55 -0.13 0.00 -0.00 0.00 4.77 -0.02 -0.49 3.00 -0.00 -20.00 3.54 0.00 0.00 0.00 -0.00 -24.00 2.46 0.00 0.00 0.00 -0.00 -20.00 3.25 0.48 -1.24 0.00 -0.00 0.00 4.26 -0.02 -1.12 8.83 -0.00 -20.00 2.84 0.00 0.00 0.00 -0.00 -24.00 1.79 0.00 0.00 0.00 -0.00 -20.00 
-0.88 96.95 -0.83 119.70 -4.66 -0.08 -9.61 -1.63 0.03 2.10 7.33 0.09 0.03 -41.47 -0.01 -6.79 0.87 0.83 0.04 -43.18 0.01 -5.02 -3.75 1.34 9.67 -1.63 -0.03 -3.17 5.78 -0.64 0.04 -43.11 -0.05 5.05 0.71 0.78 -0.05 -43.10 -0.07 0.59 -0.80 -1.12 0.01 16.39 -0.02 0.62 5.62 -1.22 0.02 10.02 -0.01 0.15 1.40 -0.31 0.02 10.44 -0.00 0.22 2.33 -0.51 0.03 10.02 -0.01 0.01 -0.25 0.06 0.01 10.71 0.01 0.01 -0.25 0.06 0.07 9.72 -0.05 0.11 -4.52 1.01 -3.26 7.16 0.02 -0.01 0.24 -0.17 -13.16 0.02 0.05 15.77 -2.87 87.54 -27.23 0.16 0.12 4.97 -15.28 3.31 -26.76 0.13 0.21 2.23 1.36 10.34 -2.56 0.20 3.21 21.86 -0.00 30.00 -3.79 0.00 0.00 -10.00 -0.00 0.00 -2.63 0.00 0.00 -10.00 -0.00 0.00 -3.32 0.52 2.03 0.00 -0.00 0.00 -5.37 -0.09 1.03 2.55 -0.00 20.00 -3.72 0.00 0.00 0.00 -0.00 24.00 -2.11 0.00 0.00 0.00 -0.00 20.00 -3.48 0.53 0.78 0.00 -0.00 0.00 -5.32 -0.09 0.32 0.00 -0.00 20.00 -4.06 0.00 0.00 0.00 -0.00 24.00 -2.55 0.00 0.00 0.00 -0.00 20.00 -3.46 0.55 -0.13 0.00 -0.00 0.00 -4.77 -0.02 -0.49 -3.00 -0.00 20.00 -3.54 0.00 0.00 0.00 -0.00 24.00 -2.46 0.00 0.00 0.00 -0.00 20.00 -3.25 0.48 -1.24 0.00 -0.00 0.00 -4.26 -0.02 -1.12 -8.83 -0.00 20.00 -2.84 0.00 0.00 0.00 -0.00 24.00 -1.79 0.00 0.00 0.00 -0.00 20.00 3.28 7.13 -0.05 10.30 0.81 -9.57 13.06 -0.03 -0.11 -29.87 8.00 -71.86 27.17 0.00 0.29 -9.33 -25.69 -11.09 26.75 -0.39 0.57 2.44 5.95 2.47 2.56 0.20 3.21 -21.86 -0.00 -30.00 3.79 0.00 0.00 10.00 -0.00 0.00 2.63 0.00 0.00 10.00 -0.00 0.00 3.32 0.52 2.03 0.00 -0.00 0.00 5.37 -0.09 1.03 -2.55 -0.00 -20.00 3.72 0.00 0.00 0.00 -0.00 -24.00 2.11 0.00 0.00 0.00 -0.00 -20.00 3.48 0.53 0.78 0.00 -0.00 0.00 5.32 -0.09 0.32 0.00 -0.00 -20.00 4.06 0.00 0.00 0.00 -0.00 -24.00 2.55 0.00 0.00 0.00 -0.00 -20.00 3.46 0.55 -0.13 0.00 -0.00 0.00 4.77 -0.02 -0.49 3.00 -0.00 -20.00 3.54 0.00 0.00 0.00 -0.00 -24.00 2.46 0.00 0.00 0.00 -0.00 -20.00 3.25 0.48 -1.24 0.00 -0.00 0.00 4.26 -0.02 -1.12 8.83 -0.00 -20.00 2.84 0.00 0.00 0.00 -0.00 -24.00 1.79 0.00 0.00 0.00 -0.00 -20.00 
